<?xml version="1.0" encoding="utf-8"?>
<svg xmlns="http://www.w3.org/2000/svg" viewBox="150.073 458.847 49.908 51.8898" width="50px" height="50px"><g id="object-4"><path d="M 182.081 496.867 C 181.873 496.936 181.658 496.997 181.456 497.083 L 179.195 498.117 L 164.791 489.831 L 164.518 487.359 C 164.487 487.142 164.429 486.927 164.382 486.712 C 163.943 484.993 162.805 483.471 161.348 482.502 C 160.621 482.014 159.815 481.661 158.994 481.461 L 158.968 481.455 C 157.805 481.19 156.613 481.22 155.491 481.48 L 153.975 481.834 L 153.97 482.535 C 155.219 482.898 156.906 483.388 157.004 483.417 L 159.118 486.222 L 156.48 490.875 L 152.987 490.501 C 152.913 490.431 151.626 489.235 150.673 488.35 L 150.073 488.715 L 150.549 490.196 C 150.901 491.294 151.487 492.331 152.311 493.193 C 152.318 493.199 152.324 493.206 152.331 493.213 C 152.924 493.815 153.642 494.325 154.433 494.698 C 156.012 495.45 157.903 495.646 159.603 495.14 C 159.811 495.07 160.027 495.01 160.228 494.925 L 162.489 493.889 L 176.894 502.176 L 177.167 504.647 C 177.197 504.864 177.256 505.081 177.303 505.295 C 177.741 507.013 178.881 508.536 180.337 509.505 C 181.063 509.992 181.869 510.346 182.69 510.546 C 182.7 510.548 182.709 510.55 182.718 510.552 C 183.88 510.817 185.071 510.787 186.194 510.526 L 187.714 510.172 L 187.719 509.473 C 186.47 509.11 184.778 508.618 184.681 508.59 L 182.566 505.784 L 185.204 501.133 L 188.697 501.506 C 188.771 501.575 190.061 502.774 191.016 503.659 L 191.612 503.297 L 191.136 501.81 C 190.784 500.713 190.197 499.676 189.373 498.813 C 189.366 498.807 189.36 498.801 189.353 498.794 C 188.761 498.192 188.044 497.682 187.252 497.308 C 185.673 496.556 183.781 496.36 182.081 496.867" fill="currentColor" id="object-1"/><path d="M 180.602 490.306 C 173.941 490.306 168.522 484.887 168.522 478.226 C 168.522 471.565 173.941 466.146 180.602 466.146 C 187.263 466.146 192.682 471.565 192.682 478.226 C 192.682 484.887 187.263 490.306 180.602 490.306 M 198.243 478.226 C 198.243 477.87 198.228 477.517 198.207 477.166 L 199.981 476.182 C 199.765 474.109 199.22 472.135 198.406 470.307 L 196.38 470.34 C 196.063 469.705 195.709 469.092 195.32 468.504 L 196.361 466.769 C 195.16 465.12 193.707 463.668 192.059 462.467 L 190.324 463.508 C 189.736 463.119 189.123 462.765 188.488 462.448 L 188.521 460.422 C 186.693 459.608 184.719 459.063 182.646 458.847 L 181.662 460.62 C 181.31 460.6 180.958 460.586 180.602 460.586 C 180.247 460.586 179.893 460.6 179.542 460.62 L 178.558 458.847 C 176.485 459.063 174.511 459.608 172.683 460.422 L 172.716 462.448 C 172.081 462.765 171.468 463.119 170.88 463.508 L 169.145 462.467 C 167.497 463.668 166.044 465.12 164.843 466.769 L 165.884 468.504 C 165.495 469.092 165.141 469.705 164.824 470.34 L 162.798 470.307 C 161.984 472.135 161.439 474.109 161.223 476.182 L 162.997 477.166 C 162.976 477.517 162.962 477.87 162.962 478.226 C 162.962 478.581 162.976 478.935 162.997 479.285 L 161.916 479.885 C 162.206 480.039 162.489 480.205 162.764 480.39 C 164.775 481.728 166.265 483.805 166.846 486.084 L 166.899 486.31 C 166.953 486.541 167.003 486.774 167.036 487.007 L 167.177 488.27 L 179.328 495.26 L 180.468 494.74 C 180.683 494.649 180.908 494.573 181.131 494.501 L 181.354 494.43 C 182.216 494.173 183.123 494.042 184.048 494.042 C 185.528 494.042 187.012 494.378 188.345 495.013 C 188.4 495.038 188.452 495.071 188.505 495.097 L 188.488 494.004 C 189.123 493.687 189.736 493.333 190.324 492.944 L 192.059 493.985 C 193.707 492.784 195.16 491.331 196.361 489.683 L 195.32 487.948 C 195.709 487.36 196.063 486.746 196.38 486.112 L 198.406 486.145 C 199.22 484.317 199.765 482.343 199.981 480.27 L 198.207 479.285 C 198.228 478.935 198.243 478.581 198.243 478.226" fill="currentColor" id="object-2"/><path d="M 180.602 483.551 C 177.661 483.551 175.277 481.167 175.277 478.226 C 175.277 475.284 177.661 472.901 180.602 472.901 C 183.543 472.901 185.927 475.284 185.927 478.226 C 185.927 481.167 183.543 483.551 180.602 483.551 M 180.602 468.689 C 175.343 468.689 171.065 472.967 171.065 478.226 C 171.065 483.485 175.343 487.763 180.602 487.763 C 185.861 487.763 190.139 483.485 190.139 478.226 C 190.139 472.967 185.861 468.689 180.602 468.689" fill="currentColor" id="object-3"/></g></svg>