<?xml version="1.0" encoding="utf-8"?>
<svg xmlns="http://www.w3.org/2000/svg" viewBox="582.4986 83.2161 48.0928 48.0949" width="50px" height="50px"><path transform="matrix(1, 0, 0, -1, 612.5609741210938, 125.3125305175781)" d="M0 0 3.178 11.236C3.748 13.249 5.49 14.713 7.571 14.928L12.834 15.472C11.849 8.207 6.768 2.254 0 0M-5.629 14.034C-8.522 14.052-10.859 15.362-10.848 16.967-10.838 18.571-8.487 19.854-5.594 19.837-2.703 19.821-.365 18.507-.376 16.905-.383 15.304-2.736 14.017-5.629 14.034M-11.071-.296C-18.427 1.728-23.984 8.048-24.904 15.785L-18.758 15.077C-16.708 14.84-15 13.393-14.432 11.408L-11.974 2.846-6.92-.88C-6.92-.88-9.147-.702-11.071-.296M-22.444 27.65C-19.88 27.041-17.109 28.111-15.667 30.484-14.831 31.861-14.591 33.429-14.871 34.895-12.193 36.306-9.141 37.097-5.904 37.077 3.879 37.019 11.892 29.588 12.901 20.083 9.85 21.439 3.247 23.786-5.98 23.839-15.443 23.896-22.243 21.273-24.938 20.025-24.652 22.787-23.779 25.371-22.444 27.65M-5.875 42.096C-9.501 42.118-12.944 41.334-16.037 39.914L-15.523 36.72C-16.031 37.655-16.788 38.469-17.762 39.063-20.708 40.852-24.549 39.914-26.339 36.967-27.545 34.986-27.514 32.6-26.467 30.703-28.724 27.067-30.036 22.782-30.062 18.191-30.139 4.909-19.437-5.919-6.155-5.998 7.125-6.076 17.955 4.627 18.03 17.909 18.108 31.189 7.406 42.019-5.875 42.096" fill="currentColor" id="object-4"/></svg>