<?xml version="1.0" encoding="utf-8"?>
<svg xmlns="http://www.w3.org/2000/svg" viewBox="426.702 81.726 47.685 47.685" width="50px" height="50px"><g id="object-3"><path d="M 474.387 107.137 L 463.241 107.137 C 463.241 99.271 456.842 92.872 448.976 92.872 L 448.976 81.726 C 452.753 81.726 456.334 82.556 459.555 84.034 L 456.526 90.205 L 458.809 91.326 L 461.812 85.209 C 465.473 87.357 468.551 90.39 470.743 94.021 L 464.777 97.915 L 466.167 100.045 L 471.949 96.271 C 473.511 99.566 474.387 103.248 474.387 107.137" fill="currentColor"/><path d="M 463.009 109.68 C 461.805 116.336 455.973 121.402 448.976 121.402 C 441.11 121.402 434.711 115.002 434.711 107.137 C 434.711 100.139 439.777 94.307 446.432 93.104 L 446.432 85.012 C 435.329 86.275 426.702 95.696 426.702 107.137 C 426.702 119.438 436.674 129.411 448.976 129.411 C 460.417 129.411 469.838 120.783 471.101 109.68 L 463.009 109.68 Z" fill="currentColor"/><path d="M 458.466 107.137 C 458.466 107.874 457.869 108.471 457.132 108.471 C 456.395 108.471 455.798 107.874 455.798 107.137 C 455.798 106.4 456.395 105.803 457.132 105.803 C 457.869 105.803 458.466 106.4 458.466 107.137 M 448.975 111.318 C 446.666 111.318 444.794 109.446 444.794 107.137 C 444.794 104.828 446.666 102.956 448.975 102.956 C 451.284 102.956 453.156 104.828 453.156 107.137 C 453.156 109.446 451.284 111.318 448.975 111.318 M 448.975 116.628 C 448.238 116.628 447.641 116.03 447.641 115.294 C 447.641 114.556 448.238 113.959 448.975 113.959 C 449.712 113.959 450.309 114.556 450.309 115.294 C 450.309 116.03 449.712 116.628 448.975 116.628 M 440.819 108.471 C 440.082 108.471 439.485 107.874 439.485 107.137 C 439.485 106.4 440.082 105.803 440.819 105.803 C 441.555 105.803 442.153 106.4 442.153 107.137 C 442.153 107.874 441.555 108.471 440.819 108.471 M 448.975 97.646 C 449.712 97.646 450.309 98.243 450.309 98.98 C 450.309 99.717 449.712 100.314 448.975 100.314 C 448.238 100.314 447.641 99.717 447.641 98.98 C 447.641 98.243 448.238 97.646 448.975 97.646 M 448.975 95.415 C 442.512 95.415 437.253 100.674 437.253 107.137 C 437.253 113.6 442.512 118.859 448.975 118.859 C 455.439 118.859 460.697 113.6 460.697 107.137 C 460.697 100.674 455.439 95.415 448.975 95.415" fill="currentColor"/></g></svg>