<?xml version="1.0" encoding="utf-8"?>
<svg xmlns="http://www.w3.org/2000/svg" viewBox="46.601 83.19 80.233 58.367" width="80px" height="60px"><g id="object-1"><path d="M 118.831 129.581 C 118.831 132.539 116.434 134.936 113.476 134.936 C 110.518 134.936 108.122 132.539 108.122 129.581 C 108.122 126.623 113.476 121.047 113.476 121.047 C 113.476 121.047 118.831 126.623 118.831 129.581" fill="currentColor"/><path d="M 113.268 139.014 C 107.181 139.014 102.246 134.079 102.246 127.992 C 102.246 121.904 107.181 116.969 113.268 116.969 C 119.356 116.969 124.29 121.904 124.29 127.992 C 124.29 134.079 119.356 139.014 113.268 139.014 M 113.268 114.426 C 110.498 114.426 107.923 115.264 105.774 116.694 L 68.022 116.694 L 63.963 103.449 L 69.915 103.449 L 72.275 111.288 L 73.962 111.288 L 77.399 114.66 L 76.365 111.288 L 73.962 103.449 L 79.915 103.449 L 82.275 111.288 L 83.96 111.288 L 87.397 114.66 L 86.364 111.288 L 86.365 111.288 L 83.962 103.449 L 89.914 103.449 L 92.275 111.288 L 93.539 111.288 L 96.976 114.66 L 95.942 111.288 L 93.539 103.449 L 99.491 103.449 L 101.851 111.288 L 108.144 111.288 L 108.144 93.869 L 92.219 93.869 L 92.219 88.522 L 95.895 88.522 L 93.988 83.19 L 66.246 83.19 L 68.153 88.522 L 75.025 88.522 L 69.369 91.857 L 69.369 93.869 L 57.01 93.869 L 57.01 106.757 L 51.806 106.757 L 51.806 93.869 L 46.601 93.869 L 46.601 101.862 L 49.483 106.757 L 50.478 108.448 L 47.859 106.757 L 46.601 106.757 L 46.601 111.698 L 49.203 111.698 L 49.203 124.586 L 54.408 124.586 L 54.408 116.593 L 51.525 111.698 L 51.526 111.698 L 50.531 110.008 L 53.149 111.698 L 57.01 111.698 L 57.01 124.586 L 68.022 124.586 L 72.466 134.054 L 101.15 134.054 C 103.381 138.495 107.968 141.557 113.268 141.557 C 120.748 141.557 126.834 135.472 126.834 127.992 C 126.834 120.511 120.748 114.426 113.268 114.426" fill="currentColor"/></g></svg>