<?xml version="1.0" encoding="utf-8"?>
<svg xmlns="http://www.w3.org/2000/svg" viewBox="340.777 260.086 39.451 54.875" width="40px" height="55px"><g id="object-7" transform="matrix(0.9999999999999999, 0, 0, 0.9999999999999999, -1.4210854715202004e-14, 0)"><title>Docs-icon</title><path d="M 373.625 279.446 L 362.916 279.446 L 362.916 276.903 L 373.625 276.903 L 373.625 279.446 Z" fill="currentColor" id="object-0"/><path d="M 373.625 283.803 L 362.916 283.803 L 362.916 281.26 L 373.625 281.26 L 373.625 283.803 Z" fill="currentColor" id="object-1"/><path d="M 373.625 297.44 L 362.916 297.44 L 362.916 294.897 L 373.625 294.897 L 373.625 297.44 Z" fill="currentColor" id="object-2"/><path d="M 373.625 301.796 L 362.916 301.796 L 362.916 299.252 L 373.625 299.252 L 373.625 301.796 Z" fill="currentColor" id="object-3"/><path d="M 350.033 279.396 L 356.434 279.396 L 353.928 283.113 L 352.634 281.172 L 350.518 282.583 L 352.864 286.101 L 354.976 286.106 L 357.81 281.904 L 357.81 287.174 L 350.033 287.174 L 350.033 279.396 Z M 359.082 289.717 L 360.353 288.446 L 360.353 278.133 L 361.778 276.021 L 359.67 274.599 L 358.149 276.853 L 348.761 276.853 L 347.49 278.125 L 347.49 288.446 L 348.761 289.717 L 359.082 289.717 Z" fill="currentColor" id="object-4"/><path d="M 357.81 305.167 L 350.033 305.167 L 350.033 297.39 L 356.434 297.39 L 353.927 301.106 L 352.633 299.165 L 350.518 300.576 L 352.863 304.095 L 354.976 304.101 L 357.81 299.897 L 357.81 305.167 Z M 359.669 292.592 L 358.149 294.846 L 348.761 294.846 L 347.489 296.118 L 347.489 306.438 L 348.761 307.71 L 359.081 307.71 L 360.353 306.438 L 360.353 296.126 L 361.778 294.014 L 359.669 292.592 Z" fill="currentColor" id="object-5"/><path d="M 376.815 311.549 L 344.19 311.549 L 344.19 269.761 L 349.794 269.761 L 349.794 271.883 L 371.211 271.883 L 371.211 269.761 L 376.815 269.761 L 376.815 311.549 Z M 355.95 262.629 L 365.101 262.629 L 365.101 264.231 L 355.95 264.231 L 355.95 262.629 Z M 371.211 266.348 L 371.211 264.231 L 367.645 264.231 L 367.645 261.357 L 366.373 260.086 L 354.678 260.086 L 353.407 261.357 L 353.407 264.231 L 349.794 264.231 L 349.794 266.348 L 340.777 266.348 L 340.777 314.961 L 380.228 314.961 L 380.228 266.348 L 371.211 266.348 Z" fill="currentColor" id="object-6"/></g></svg>