<?xml version="1.0" encoding="utf-8"?>
<svg xmlns="http://www.w3.org/2000/svg" viewBox="156.9947 268.3157 36.855 44.539" width="35px" height="45px"><path transform="matrix(1, 0, 0, -1, 167.17970275878903, 281.65771484375)" d="M0 0C0 3.635 2.947 6.583 6.583 6.583 10.218 6.583 13.166 3.635 13.166 0 13.166-3.636 10.218-6.583 6.583-6.583 2.947-6.583 0-3.636 0 0M22.503-18.86H10.13C14.083-14.973 19.925-7.895 19.925 0 19.925 7.369 13.952 13.342 6.583 13.342-.786 13.342-6.759 7.369-6.759 0-6.759-11.752 6.583-22.001 6.583-22.001L-1.994-18.86H-10.185L-6.018-31.197H26.67Z" fill="currentColor" id="object-5"/></svg>