<?xml version="1.0" encoding="utf-8"?>
<svg xmlns="http://www.w3.org/2000/svg" viewBox="66.849 77.24 50.221 51.868" width="50px" height="50px"><g id="object-0"><path d="M 77.975 101.986 C 77.425 101.986 76.895 102.066 76.389 102.205 L 75.051 104.372 C 76.221 106.756 77.975 110.034 80.168 112.232 L 82.57 111.937 C 83.469 110.882 84.015 109.518 84.015 108.026 C 84.015 104.695 81.306 101.986 77.975 101.986" fill="currentColor"/><path d="M 97.691 91.294 C 100.632 91.294 103.016 93.678 103.016 96.619 C 103.016 99.561 100.632 101.945 97.691 101.945 C 94.75 101.945 92.366 99.561 92.366 96.619 C 92.366 93.678 94.75 91.294 97.691 91.294 M 97.691 106.156 C 102.95 106.156 107.228 101.878 107.228 96.619 C 107.228 91.36 102.95 87.082 97.691 87.082 C 92.432 87.082 88.154 91.36 88.154 96.619 C 88.154 97.586 88.301 98.519 88.57 99.399 C 89.471 100.503 90.195 101.753 90.718 103.104 C 92.461 104.976 94.938 106.156 97.691 106.156" fill="currentColor"/><path d="M 115.332 96.619 C 115.332 96.264 115.318 95.911 115.297 95.56 L 117.07 94.575 C 116.854 92.502 116.31 90.528 115.495 88.7 L 113.47 88.734 C 113.152 88.099 112.799 87.486 112.409 86.898 L 113.45 85.162 C 112.249 83.514 110.797 82.061 109.148 80.861 L 107.413 81.901 C 106.825 81.512 106.212 81.158 105.577 80.841 L 105.61 78.815 C 103.783 78.001 101.809 77.456 99.736 77.24 L 98.751 79.014 C 98.4 78.993 98.048 78.979 97.691 78.979 C 97.336 78.979 96.983 78.993 96.632 79.014 L 95.647 77.24 C 93.574 77.456 91.601 78.001 89.772 78.815 L 89.806 80.841 C 89.171 81.158 88.559 81.512 87.97 81.901 L 86.234 80.861 C 84.586 82.061 83.134 83.514 81.933 85.162 L 82.974 86.898 C 82.584 87.486 82.23 88.099 81.913 88.734 L 79.888 88.7 C 79.1 90.468 78.571 92.375 78.342 94.374 C 81.034 94.446 83.528 95.301 85.616 96.71 C 85.616 96.679 85.611 96.65 85.611 96.619 C 85.611 89.958 91.03 84.539 97.691 84.539 C 104.353 84.539 109.771 89.958 109.771 96.619 C 109.771 103.28 104.353 108.699 97.691 108.699 C 95.467 108.699 93.388 108.084 91.596 107.031 C 91.62 107.361 91.645 107.69 91.645 108.026 C 91.645 110.375 91.052 112.586 90.008 114.517 C 91.77 115.275 93.661 115.791 95.647 115.998 L 96.632 114.225 C 96.983 114.245 97.336 114.259 97.691 114.259 C 98.048 114.259 98.4 114.245 98.751 114.225 L 99.736 115.998 C 101.809 115.782 103.783 115.237 105.61 114.423 L 105.577 112.398 C 106.212 112.08 106.825 111.726 107.413 111.337 L 109.148 112.378 C 110.797 111.177 112.249 109.725 113.45 108.076 L 112.409 106.341 C 112.799 105.753 113.152 105.14 113.47 104.505 L 115.495 104.538 C 116.31 102.71 116.854 100.737 117.07 98.663 L 115.297 97.679 C 115.318 97.328 115.332 96.975 115.332 96.619" fill="currentColor"/><path d="M 77.975 116.609 C 73.243 116.609 69.392 112.759 69.392 108.026 C 69.392 103.293 73.243 99.442 77.975 99.442 C 82.708 99.442 86.559 103.293 86.559 108.026 C 86.559 112.759 82.708 116.609 77.975 116.609 M 77.975 96.899 C 71.84 96.899 66.849 101.891 66.849 108.026 C 66.849 114.161 71.84 119.152 77.975 119.152 C 84.111 119.152 89.102 114.161 89.102 108.026 C 89.102 101.891 84.111 96.899 77.975 96.899" fill="currentColor"/><path d="M 94.382 126.726 L 87.605 117.717 C 86.665 118.651 85.589 119.449 84.411 120.08 L 91.203 129.108 L 94.382 126.726 Z" fill="currentColor"/></g></svg>