<?xml version="1.0" encoding="utf-8"?>
<svg xmlns="http://www.w3.org/2000/svg" viewBox="346.981 458.0172 48.57 54.459" width="50px" height="55px"><path transform="matrix(1, 0, 0, -1, 365.0660095214844, 499.57623291015625)" d="M0 0-4.272 8.024-7.734 6.991C-12.672 5.516-16.276 1.27-16.929-3.842L-18.085-12.9H5.15V3.921ZM20.785-3.116H12.012V-5.6809999H20.785ZM30.485-12.9H7.716V3.799L12.364-.014 16.946 7.892 20.078 6.952C24.974 5.484 28.559 1.291 29.246-3.773ZM18.988 28.853H17.307C17.241 30.35 16.647 37.092 11.265 39.449L9.521 34.349 10.141 41.192C9.1 41.42 7.487 41.559 6.238 41.559 4.942 41.559 3.355 41.429 2.293 41.188L2.913 34.349 1.185 39.407C-2.834 37.513-3.987 32.861-4.316 30.306L5.216 28.829H-6.149V23.721H-2.776C-2.763 15.378-.446 9.429 6.248 9.429 13.083 9.429 15.259 15.378 15.271 23.721H18.988ZM11.658 3.883 14.42 8.648 12.967 9.084C11.552 7.942 9.853 7.22 7.896 6.969ZM.847 3.868-1.765 8.773-.551 9.137C1.104 7.752 3.012 7.128 4.874 6.935Z" fill="currentColor" id="object-0"/></svg>