<?xml version="1.0" encoding="utf-8"?>
<svg xmlns="http://www.w3.org/2000/svg" viewBox="541.091 311.405 47.676 50.228" width="50px" height="50px"><g id="object-3" transform="matrix(1, 0, 0, 1, 0, -1.4210854715202004e-14)"><path d="M 574.674 354.745 L 568.007 348.775 L 569.703 346.881 L 574.293 350.989 L 580.941 342.032 L 582.984 343.547 L 574.674 354.745 Z" fill="currentColor" id="object-0"/><path d="M 558.636 317.211 L 563.666 317.211 L 563.938 321.718 L 580.569 321.718 L 577.958 311.405 L 544.344 311.405 L 541.734 321.718 L 558.365 321.718 L 558.636 317.211 Z" fill="currentColor" id="object-1"/><path d="M 575.202 359.09 C 569.114 359.09 564.179 354.155 564.179 348.068 C 564.179 341.98 569.114 337.045 575.202 337.045 C 581.289 337.045 586.224 341.98 586.224 348.068 C 586.224 354.155 581.289 359.09 575.202 359.09 M 581.213 335.924 L 581.213 324.261 L 563.978 324.261 L 563.978 333.353 L 558.325 333.353 L 558.325 324.261 L 541.091 324.261 L 541.091 353.663 L 562.858 353.663 C 564.995 358.357 569.718 361.633 575.202 361.633 C 582.681 361.633 588.767 355.548 588.767 348.068 C 588.767 342.747 585.681 338.146 581.213 335.924" fill="currentColor" id="object-2"/></g></svg>