<?xml version="1.0" encoding="utf-8"?>
<svg xmlns="http://www.w3.org/2000/svg" viewBox="349.1103 76.2455 50.253 51.5" width="50px" height="50px"><path transform="matrix(1, 0, 0, -1, 394.2773132324219, 115.89651489257812)" d="M0 0V-3.605L-17.497-5.224V-2.715H-15.833C-13.736-2.715-12.037-1.016-12.037 1.081L-14.145 18.014H-17.497V29.054H-13.085V31.184H-2.442V27.802H2.644V39.651H-2.442V36.271H-13.085V38.4H-26.995V33.663L-28.273 36.271H-37.638V39.651H-42.724V27.802H-37.638V31.184H-26.995V29.054H-22.583V18.014H-25.935L-28.043 1.081C-28.043-1.016-26.344-2.715-24.248-2.715H-22.583V-5.224L-40.08-3.605V0H-45.167V-11.849H-40.08V-8.714L-20.274-10.546-20.04-10.567 0-8.713V-11.849H5.086V0Z" fill="currentColor" id="object-2"/></svg>