<?xml version="1.0" encoding="utf-8"?>
<svg xmlns="http://www.w3.org/2000/svg" viewBox="434.227 262.915 51.758 34.879" width="50px" height="35px"><g id="object-0"><path d="M 442.735 295.483 C 441.701 295.483 440.862 294.644 440.862 293.61 C 440.862 292.575 441.701 291.736 442.735 291.736 C 443.77 291.736 444.609 292.575 444.609 293.61 C 444.609 294.644 443.77 295.483 442.735 295.483 M 442.735 289.426 C 440.425 289.426 438.552 291.299 438.552 293.61 C 438.552 295.92 440.425 297.793 442.735 297.793 C 445.046 297.793 446.919 295.92 446.919 293.61 C 446.919 291.299 445.046 289.426 442.735 289.426" fill="currentColor"/><path d="M 463.03 294.925 C 461.737 294.925 460.688 293.877 460.688 292.584 C 460.688 291.29 461.737 290.242 463.03 290.242 C 464.323 290.242 465.372 291.29 465.372 292.584 C 465.372 293.877 464.323 294.925 463.03 294.925 M 463.03 287.373 C 460.153 287.373 457.82 289.706 457.82 292.584 C 457.82 295.461 460.153 297.794 463.03 297.794 C 465.907 297.794 468.24 295.461 468.24 292.584 C 468.24 289.706 465.907 287.373 463.03 287.373" fill="currentColor"/><path d="M 462.353 284.084 L 459.795 284.084 L 452.978 282.216 L 451.147 275.045 C 450.957 274.3 450.233 273.82 449.472 273.936 L 448.596 274.068 L 449.178 280.351 L 451.013 281.674 L 445.171 280.077 L 445.171 265.458 L 457.037 265.458 L 462.353 279.641 L 462.353 284.084 Z M 473.247 293.441 L 473.247 273.9 L 470.905 273.9 L 470.905 264.187 L 465.819 264.187 L 465.819 284.084 L 464.896 284.084 L 464.896 279.41 L 464.815 278.964 L 459.109 263.74 L 457.918 262.915 L 443.9 262.915 L 442.628 264.187 L 442.625 282.541 L 441.139 279.41 L 436.129 279.41 L 434.227 281.313 L 434.227 294.547 L 437.591 294.547 C 437.536 294.242 437.503 293.93 437.503 293.61 C 437.503 290.725 439.851 288.377 442.736 288.377 C 445.622 288.377 447.969 290.725 447.969 293.61 C 447.969 293.93 447.936 294.242 447.881 294.547 L 457.09 294.547 C 456.885 293.928 456.77 293.27 456.77 292.584 C 456.77 289.131 459.578 286.323 463.03 286.323 C 466.482 286.323 469.29 289.131 469.29 292.584 L 470.905 292.583 L 470.905 294.612 L 472.076 295.783 L 485.985 294.846 L 485.985 293.441 L 473.247 293.441 Z" fill="currentColor"/></g></svg>