<?xml version="1.0" standalone="no"?>
<!DOCTYPE svg PUBLIC "-//W3C//DTD SVG 20010904//EN"
 "http://www.w3.org/TR/2001/REC-SVG-20010904/DTD/svg10.dtd">
<svg version="1.0" xmlns="http://www.w3.org/2000/svg"
 width="35pt" height="25pt" viewBox="0 0 3500 2500"
 preserveAspectRatio="xMidYMid meet">

<g transform="translate(0.000000,2480.000000) scale(0.100000,-0.100000)"
fill="#163E6C" stroke="none">
<path d="M2783 19658 c3 -7 386 -978 852 -2158 466 -1180 851 -2153 856 -2162
9 -17 275 -18 5308 -20 l5298 -3 -145 -372 -145 -373 -3719 0 c-2045 0 -3718
-3 -3718 -7 0 -5 374 -981 832 -2170 l833 -2163 2038 0 c1937 0 2038 -1 2033
-17 -3 -10 -68 -178 -145 -373 l-138 -355 -1741 -5 -1741 -5 859 -2160 c473
-1188 860 -2166 860 -2172 0 -10 1566 -13 7794 -13 l7795 0 29 77 c17 43 397
1020 846 2171 449 1151 816 2095 816 2097 0 3 -2250 5 -5001 5 -2892 0 -4999
4 -4997 9 2 5 513 1319 1137 2920 l1134 2911 2238 0 2239 0 -9 -22 c-11 -30
-1002 -2569 -1008 -2586 -4 -9 551 -12 2753 -12 l2759 0 1355 3476 c745 1911
1357 3480 1358 3485 2 5 -5691 9 -14758 9 -11806 0 -14761 -3 -14757 -12z"/>
</g>
</svg>
